<svg width="52" height="49" viewBox="0 0 52 49" fill="none" xmlns="http://www.w3.org/2000/svg">
<path d="M0 33.1807C1.90001 32.949 3.70734 32.2075 5.0976 28.7319C8.4342 20.344 11.7245 10.1025 15.3855 0H16.0343L26.7392 29.566C27.7124 32.2075 29.3343 32.9953 31.2344 33.1807V33.7368H16.6367V33.1807C21.5489 32.8563 22.2441 32.0222 21.3172 29.3343L19.7416 24.7002H7.78542C7.36834 26.0441 6.95127 27.3416 6.58053 28.6392C5.60735 32.0222 6.30248 32.8563 10.4269 33.1807V33.7368H0V33.1807ZM8.06347 23.8197H19.4635L13.8562 7.13663C11.7708 12.883 9.73177 18.5367 8.06347 23.8197Z" fill="white"/>
<path d="M24.0559 47.5811C26.512 47.3031 27.5779 46.4226 27.5779 44.3372V18.2004C27.5779 16.1151 26.512 15.2346 24.0559 14.9565V14.4004H36.8462C47.0414 14.4004 52 22.1858 52 31.0371C52 41.603 46.4853 48.1372 36.3828 48.1372H24.0559V47.5811ZM32.2121 44.3372C32.2121 46.4689 33.3706 47.3494 35.6414 47.3494H36.1975C43.1951 47.3494 46.8561 40.6299 46.8561 31.8713C46.8561 20.5639 42.639 15.1882 36.0584 15.1882H35.6414C33.3706 15.1882 32.2121 16.0687 32.2121 18.2004V44.3372Z" fill="white"/>
</svg>
